<?xml version="1.0" encoding="utf-8"?>
<svg viewBox="0 0 500 500" width="500" height="500" xmlns="http://www.w3.org/2000/svg">
  <g transform="matrix(0.470613, 0, 0, 0.470613, 623.095215, 127.533066)">
    <path fill="#fff" fill-rule="evenodd" d="M -660.723 -163.637 C -653.433 -154.587 -649.716 -142.377 -642.282 -117.955 L -479.875 415.556 C -540.878 383.899 -606.353 361.731 -674.041 349.819 L -779.785 -7.521 C -782.788 -17.68 -795.663 -20.779 -802.959 -13.098 C -804.469 -11.51 -805.577 -9.583 -806.192 -7.48 L -910.655 349.639 C -978.649 361.496 -1044.425 383.699 -1105.696 415.475 L -942.491 -118.079 C -935.034 -142.459 -931.305 -154.649 -924.016 -163.681 C -917.58 -171.655 -909.209 -177.848 -899.702 -181.67 C -888.932 -185.998 -876.185 -185.998 -850.69 -185.998 L -734.121 -185.998 C -708.593 -185.998 -695.829 -185.998 -685.049 -181.66 C -675.532 -177.831 -667.157 -171.625 -660.723 -163.637 Z" clip-rule="evenodd"/>
    <path fill="#FF5D01" fill-rule="evenodd" d="M -641.289 440.946 C -668.062 463.84 -721.5 479.453 -783.055 479.453 C -858.604 479.453 -921.927 455.933 -938.73 424.301 C -944.737 442.43 -946.084 463.178 -946.084 476.432 C -946.084 476.432 -950.041 541.514 -904.775 586.781 C -904.775 563.276 -885.721 544.222 -862.217 544.222 C -821.93 544.222 -821.975 579.37 -822.012 607.886 L -822.014 610.431 C -822.014 653.713 -795.561 690.816 -757.94 706.455 C -763.559 694.898 -766.711 681.92 -766.711 668.205 C -766.711 626.925 -742.477 611.555 -714.311 593.691 C -691.901 579.478 -667.001 563.687 -649.841 532.009 C -640.887 515.481 -635.803 496.55 -635.803 476.432 C -635.803 464.06 -637.726 452.137 -641.289 440.946 Z" clip-rule="evenodd"/>
  </g>
</svg>