<svg xmlns="http://www.w3.org/2000/svg" viewBox="173.08 168.13 153.84 163.74">
  <g transform="matrix(1, 0, 0, 1, 110.170296, 126.991776)">
    <path fill="#18B6F6" d="M 198.211 204.877 L 168.861 175.677 L 168.441 175.747 L 168.441 175.447 L 106.031 113.707 L 121.441 98.857 L 112.381 46.927 L 69.491 100.127 C 62.211 107.487 60.811 119.517 66.091 128.337 L 92.891 172.827 C 96.991 179.647 103.431 184.027 112.421 183.707 C 131.451 183.037 139.821 183.037 139.821 183.037 L 198.191 204.847 L 198.211 204.867 L 198.211 204.877 Z" data-darkreader-inline-fill="" style="--darkreader-inline-fill:#0788bc;"/>
    <path fill="#AC7EF4" d="M 212.711 123.057 C 216.941 114.337 218.451 106.707 214.281 99.057 L 208.351 88.137 L 205.271 82.537 L 204.071 80.337 L 203.971 80.477 L 187.821 52.477 C 183.757 45.391 176.18 41.054 168.011 41.137 L 153.851 41.537 L 111.601 41.647 C 103.621 41.705 96.26 45.955 92.221 52.837 L 66.551 103.817 L 112.491 46.667 L 172.761 112.937 L 161.961 123.867 L 168.411 175.707 L 168.501 175.607 L 168.501 175.747 L 168.401 175.747 L 168.541 175.877 L 173.561 180.777 L 197.861 204.517 C 198.891 205.497 200.541 204.317 199.861 203.097 L 184.841 173.527" data-darkreader-inline-fill="" style="--darkreader-inline-fill:#370b7c;"/>
    <path fill="#fff" d="M 172.901 112.767 L 112.471 46.837 L 121.061 98.477 L 105.681 113.397 L 168.301 175.627 L 162.661 123.967 L 172.901 112.797 L 172.901 112.777 L 172.901 112.767 Z" data-darkreader-inline-fill="" style="--darkreader-inline-fill:#181a1b;"/>
  </g>
</svg>