<?xml version="1.0" encoding="utf-8"?>
<!-- Generator: Adobe Illustrator 25.2.0, SVG Export Plug-In . SVG Version: 6.00 Build 0)  -->
<svg version="1.2" baseProfile="tiny" id="Layer_1" xmlns="http://www.w3.org/2000/svg" xmlns:xlink="http://www.w3.org/1999/xlink"
	 x="0px" y="0px" viewBox="0 0 475 440.1" overflow="visible" xml:space="preserve">
<path fill="#7E7E7E" d="M66.3,267c1.2-5-0.6-9.4-3.3-14.3c-6.4-10.7-7.2-24-2-35.4c0.8-1.9,1.3-3.5,0.5-5.6
	c-5.4-14.6-3.1-28.2,5.9-40.7c1.1-1.4,1.7-3.2,1.5-5c-1.2-15.6,4.5-28.1,16.9-37.5c1.4-1.1,2.3-2.8,2.5-4.6
	c2.3-11.5,8-20.8,17.8-27.5c0.1-0.1,0.2-0.2,0.3-0.2c8-2.4,11.9-8.9,16.2-15.3c6.5-9.6,16.1-14.6,27.5-16c2.1-0.2,4-1.3,5.3-2.9
	c10-11.4,22.5-16.6,37.7-14.6c1.8,0.3,3.6-0.1,5.1-1.2c12.8-8.7,26.4-10.8,40.8-4.6c1.8,0.8,3.8,0.8,5.6,0.1
	c14-4.8,27.2-3.4,39.1,5.9c1.9,1.5,4.4,2.2,6.8,2c15.1-0.6,28,4.1,36.9,17.1c1.1,1.6,2.6,1.9,4.3,2.2c12.2,1.6,20.9,8.7,28.2,18.1
	c1.6,10.8,12.3,12.7,18.6,19s11.1,13.6,12.2,22.6c0.4,3.5,2.1,6.7,4.7,8.9c10.3,9.7,15.2,21.7,13,36c-0.5,3,0.7,5.1,2.1,7.2
	c6.4,9.7,8.5,20.3,5.8,31.5c-2,8.1-6,15.6-11.6,21.8c-12.3,13.7-27.9,22.1-44.5,29.1c-4.4,1.7-8.8,3.2-13.4,4.4
	c-1.7,0.4-3.2,1.6-4,3.2c-2,4.1-4.7,7.8-8.1,10.9c-0.9,0.9-1.6,2-2,3.3c-3.3,8.7-9.5,14.8-17.3,19.4c-1.2,0.6-2.2,1.4-2.9,2.5
	c-4.6,7.9-12.6,11.1-20.5,14.3c-2.6,1.1-5.1,2.5-7.5,4c-4.8,3-9.7,6-15.5,5.9c-7.8-0.1-14.9,3.4-22.5,4.4c-3.1,0.4-6.3,0.3-9.3-0.4
	c-7.3-1.7-14.9,0.5-22-1.5c-3.3-0.9-6.1,0-9,1c-19.4,6.8-39.2,11.4-59.8,11.5c-14,0.1-27.6-2-40.1-8.8S85.9,320.1,84,305.7
	c-0.3-2.6-1.6-5-3.7-6.6C70.6,290.8,66,280.2,66.3,267z M216.5,278.6c-3.9-1.2-8-0.2-12-0.6c-8.4-0.8-16.9-1.4-26-3.3
	c2.8,3.9,5.2,7.5,9.4,7.5c9.6,0.1,19.2-0.4,28.6-3.2h2.9C218.4,278.3,217.5,277.6,216.5,278.6L216.5,278.6z M236.3,270.9
	c13.9-0.6,25.7-4.3,35.8-13c8.2-7,14-16.4,16.6-26.8c3.1-11.2,2.1-23.1-2.8-33.6c-8-17.3-20.8-28-39.7-31.1
	c-9.4-1.7-19.1-0.7-28,2.9c-20.6,8.5-40.3,19.2-58.6,32c-2.2,1.5-2.9,3.5-3.2,5.8c-2,11.9-0.2,23.4,2.6,34.9
	c1.1,4.4,3.3,7.7,7.9,9.4c3.1,1.1,5.9,2.8,8.9,4.1C195.2,264.3,216.1,268.2,236.3,270.9L236.3,270.9z M406.2,183.9
	c-3.2,7.3-7.4,14.3-12.2,20.6c-8.7,11.5-19.4,20.7-31.3,28.7c-5,3.4-10.4,6.1-11.2,13.2c-0.2,2.2-1.5,4.4-2.8,6.4
	c-1.1,1.9-1.8,4-2,6.2c-0.5,2.8,0.7,2.5,2.4,1.8c14.8-5.3,29.2-11.4,41.5-21.5c8.8-7.2,16.6-15.2,19.5-26.7
	C412.6,202.9,411.1,193.6,406.2,183.9L406.2,183.9z M201.9,330c-0.4-2-2-2-3.3-2.2c-3.9-0.3-7.7-1.4-11.2-3.3
	c-4-2.4-8.1-2.2-12.5-1.8c-18.9,1.4-37.6,0.3-56-4.3c-9.7-2.4-19.3-5.1-28.5-11.4c1.2,7.4,4.9,14.2,10.5,19.2
	c10,9.1,22.6,12.2,35.6,13.4C158.9,341.5,180.5,336.5,201.9,330z M354.4,231.9c1.3-0.9,2.5-1.5,3.5-2.2c10-7.3,19.8-14.9,28.1-24.3
	c6.4-7.2,11.5-15.6,14.8-24.7c0.5-1.3,1.1-2.6-0.1-4c-4.4-4.8-8.9-9.5-14.8-12.8c-6.4,13.7-14.2,26.5-24.5,37.7
	c-3.4,3.7-7.3,7.5-6.4,13.7C355.7,220.6,352,225.9,354.4,231.9L354.4,231.9z M174.3,317c-0.1-2.3-1.5-2.5-2.4-2.9
	c-3.7-1.2-7.2-3.3-10-6c-3.2-3.2-7.1-4.4-11.4-5.2c-9.4-1.7-18.6-4.1-27.6-7.1c-9.6-3.3-19-7.2-27.7-12.6c-2.2-1.4-3-1-3.6,1.6
	c-1,4-1.7,8.2-2,12.3c-0.2,1.4,0.5,2.8,1.8,3.5c6.5,4.2,13.4,7.5,20.7,10c12.6,4.4,25.8,5.5,38.9,6.3
	C158.7,317.4,166.5,317,174.3,317z M351.5,192.8c-0.6,2.5,0.3,4.1,0.9,5.9c0.8,2.3,1.8,2.7,3.4,0.6c2.3-3,4.7-5.9,7-8.9
	c6.6-8.6,12.8-17.4,16.7-27.7c0.6-1.6,0.7-2.6-1-3.8c-4.8-3.3-10.1-5.4-15.3-7.8c-1.7-0.8-2.5-0.5-3,1.4
	c-2.2,8.2-6.4,15.6-10.2,23.2c-1.1,1.9-1.3,4.1-0.5,6.1C350.6,185.5,350.9,189.5,351.5,192.8L351.5,192.8z M151.8,297.4
	c-0.8-1.4-1-2.3-1.5-2.7c-4.8-3.7-8.5-8.4-12.1-13.3c-0.4-0.5-0.9-0.9-1.5-1.1c-11.3-5.5-22.1-11.8-32.5-18.8
	c-1.4-0.9-2.1-0.9-3,0.7c-2.1,3.8-4,7.6-5.6,11.6c-0.9,2-0.1,2.6,1.3,3.7c5.2,4,11.4,5.7,17.2,8.3
	C125.8,291.1,138.2,294.6,151.8,297.4z M345.1,171.7c3.7-6.7,6.9-13.7,9.5-21c0.7-1.8,0.6-2.8-1.4-3.4c-4.9-1.5-9.7-3.1-14.5-4.7
	c-1.4-0.5-2.6-0.6-2.8,1.4c-0.4,4.3-2.1,8.3-3.1,12.5c-0.3,1.4-0.3,2.5,1,3.5C338.4,163.1,342.2,167.1,345.1,171.7z M254.9,60.7
	c-3.5-4.2-7.7-7.7-12.4-10.4c-0.8-0.6-1.9-0.7-2.9-0.2c-5.5,2.4-10.6,5.7-15.1,9.6c-1.1,0.9-1.1,1.4,0,2.4c3.5,3,7,6.2,10.5,9.4
	c1.1,1,1.8,0.8,3,0.1C243.8,68.2,248.7,63.7,254.9,60.7L254.9,60.7z M97.2,257.3c-0.2-1.2-1.1-1.6-1.7-2.2
	c-4.3-4.2-9.8-6.9-13.4-11.9c-1.1-1.5-1.7-0.3-2.2,0.6c-2.2,4-4.6,7.8-5.8,12.3c-0.6,1.4-0.2,3.1,0.9,4.1c3.8,4,7.8,7.6,12.2,11
	c1.3,1.1,2.3,1.7,3.1-0.6c1.1-3.6,3.5-6.6,5.2-10C96.1,259.4,96.7,258.3,97.2,257.3z M80.3,232.3c0.4-0.3,0.9-0.5,1-0.8
	c2.5-4.5,6.6-7.7,9.9-11.5c0.8-0.9,0.5-1.6-0.1-2.4c-3.7-4.9-7.5-9.7-9.9-15.4c-0.6-1.4-1.3-1.8-2.5-0.5c-3.3,3.5-6.7,7-9.1,11.2
	c-0.6,1.1-1,2-0.3,3.2c2.8,5.2,6,10.1,9.7,14.7C79.4,231.4,79.8,231.9,80.3,232.3L80.3,232.3z M197.5,54.2c-0.3,0-0.6,0.2-0.9,0.4
	c-4.8,4.3-9.1,9-12.9,14.2c-0.9,1.3,0.2,1.5,1.1,1.8c4.2,1.7,8.3,3.8,12.1,6.4c1.2,0.8,2.1,0.7,3-0.4c3.8-4.8,8-9.3,12.4-13.5
	c0.8-0.8,1.4-1.7-0.1-2.5C207.8,57.9,203.2,55.5,197.5,54.2z M92.8,137c-0.4,4.1,0.7,8,1,12.1c0.2,2.7,1.4,2.5,3.3,1.8
	c3.7-1.2,7.4-2.6,11.2-3.5c2.7-0.6,3.2-1.9,2.7-4.4c-0.6-3.6-0.7-7.3-1.1-10.9c-0.3-2.5,1.3-6.3-0.7-7.2s-5.2,0.9-7.8,1.8
	C93.8,129.3,93.3,130,92.8,137z M382.5,154.3c1.6-5.3,3-10.2,2.8-15.3c0-1.1,0.3-2.4-1-3.1c-5.3-2.8-10.3-6.1-16-8.1
	c-1-0.4-2-0.8-2.2,1c-0.4,4.7-2,9.1-3,13.7c-0.4,1.2,0.2,2.5,1.3,2.9c0.1,0,0.1,0,0.2,0.1C370.6,148.2,376.6,150.7,382.5,154.3
	L382.5,154.3z M264.2,62.6c3.3,4,6.2,8.4,8.8,12.9c0.9,1.6,1.9,1.8,3.4,1.1c5.4-2.1,10.8-4.5,16.6-5.6c1.8-0.3,2-1.2,1.1-2.7
	c-2.3-3.9-5-7.6-8-11c-1-1.1-2.5-1.5-3.8-1.1C276,57.7,270,59.8,264.2,62.6z M126,116.5c1.6-0.2,3.1-0.3,4.7-0.2
	c2.5,0.2,3.3-0.7,3.7-3.1c0.9-5.5,1.6-11.1,3.5-16.4c0.5-1.4,0.4-2.5-1.7-2.4c-4.6,0.2-9.1,0.3-13.6,1.3c-1.3,0.2-2.4,1.1-2.7,2.4
	c-0.9,3.5-2.4,6.9-2.8,10.5c-0.3,2.6-1.7,5.9-0.7,7.6c1.3,2.1,4.7-0.1,7.2,0.3C124,116.6,124.4,116.5,126,116.5z M89.9,160.5
	c-4.6,2.5-8.9,5.4-12.8,8.8c-1.1,0.7-1.6,2-1.4,3.3c1.2,5.9,3,11.6,5.6,17c0.5,1.1,0.9,1.4,1.9,0.6c3.5-2.9,7.4-5.3,11.6-7.1
	c1.6-0.8,2-1.7,1.4-3.4C94,173.4,91.5,167.2,89.9,160.5L89.9,160.5z M146.8,89.2c5.2,0.2,9.9,1.8,14.7,2.9c1.3,0.3,2.4,0.8,3.2-1
	c2.3-5.7,5.1-11.1,8.3-16.4c0.9-1.4,0.6-2.1-1-2.4c-4.5-1.1-9.1-2.4-13.8-2.2c-1.2-0.2-2.4,0.3-3,1.3
	C151.6,76.9,148.5,82.5,146.8,89.2L146.8,89.2z M318.8,73.4c-4.4-0.7-8.5,0.7-12.8,0.9c-2,0.1-2,0.9-1.4,2.5c1,2.5,1.9,5.1,2.7,7.7
	c2.2,6.9,2.2,6.9,9.5,6.4c2-0.1,4,0,5.8-0.5c2.8-0.9,7,1.8,8-1.1c0.9-2.3-1.4-5.9-2.4-8.8C326,73.8,325.9,73.8,318.8,73.4
	L318.8,73.4z M361,118.8c-0.1-5.1,0.3-10.1-0.9-15.2c-0.1-1.3-1-2.4-2.3-2.8c-5.6-1.9-11.3-3.2-17.1-3.8c-1.4-0.1-2.1,0.1-1.9,1.9
	c0.7,4.5,0.9,9.1,0.8,13.7c-0.1,1.7,0.8,2.2,2.3,2.5C348.2,116.3,354.5,117.5,361,118.8L361,118.8z M323.4,113.2
	c2.6,0.2,5.2,0.4,7.8,0.7c1.6,0.2,2.4,0.1,2.4-1.8c-0.1-4.6,0-9.1-0.8-13.6c-0.3-2-1.4-2.1-3-2.1c-4.6-0.2-9.1,0.4-13.6,0.7
	c-6.3,0.4-5.8,0.3-4.8,5.7c0.6,3.3,0,7.7,1.9,9.7C315.4,114.8,319.9,112.8,323.4,113.2L323.4,113.2z M111.4,152.3
	c-5.1,1.6-10.3,2.5-14.9,5.2c-1.1,0.7-0.7,1.5-0.4,2.4c1.3,5.7,3,11.3,5.1,16.8c0.6,1.7,1.3,2.2,3.1,1.3c3.4-1.7,6.8-3.2,10.3-4.6
	c1.5-0.6,1.8-1.5,1.5-3.1c-1.1-5.2-2.1-10.4-3.2-15.6C112.5,153.7,112.7,152.4,111.4,152.3L111.4,152.3z M268.2,79.5
	c-0.1-0.3-0.3-0.7-0.5-1c-2.4-3.7-4.4-7.7-7.1-11.2c-1.2-1.6-2.1-1.6-3.8-0.8c-5.1,2.7-9.9,5.7-14.4,9.2c-1.6,1.2-1.5,1.9-0.3,3.3
	c2.4,2.8,4.6,5.6,6.8,8.5c0.9,1.2,1.5,1.7,3.1,0.8c4.8-2.6,9.7-5,14.6-7.5C267.2,80.6,268.1,80.5,268.2,79.5L268.2,79.5z
	 M140.2,114.5c-0.4,1.4,0.1,2.2,2.1,2.3c3.8,0.2,7.5,0.8,11.2,1.3c1.4,0.2,2.1-0.2,2.5-1.6c1.3-5.4,3-10.8,5.1-15.9
	c0.7-1.5,0.4-2.4-1.4-2.7c-4.2-0.8-8.3-2.2-12.6-2.6c-2-0.2-2.7,0.3-3.3,2.1C142.2,102.9,141.4,108.5,140.2,114.5L140.2,114.5z
	 M218.9,65.5c-1.3,0.1-1.7,1-2.4,1.5c-3.7,2.9-6.3,6.9-9.4,10.4c-3.4,4-3.4,4,0.8,6.9c2.9,1.9,6,5.7,8.5,5.4c3-0.4,5.6-4.2,8.2-6.8
	c2.2-2.2,6.7-3.6,5.9-7c-0.7-2.9-4.1-5.1-7-7.1C222,67.6,220.4,66.5,218.9,65.5L218.9,65.5z M360.2,128.7c1.4-3.1-0.5-4.2-3.3-4.8
	c-5.1-1.1-10.2-2.1-15.3-3.2c-1.8-0.4-2.6,0.1-2.7,2.1c-0.2,3.6-0.5,7.3-1.1,10.9c-0.3,1.8,0.2,2.4,1.9,3c5.1,1.5,10.2,3.2,15.2,5
	c1.8,0.6,2.5,0.3,2.9-1.7C358.7,136.3,360.4,132.8,360.2,128.7L360.2,128.7z M126.6,121.9c-2.7,0.3-5.4,0.7-8.1,0.8
	c-2.4,0.1-2.8,1.3-2.9,3.4c-0.1,5,0.5,9.9,0.6,14.8c0.1,3.2,0.9,4.8,4.6,3.6c2.7-0.8,5.6-1.3,8.4-1.4c2.8-0.1,3.4-1.3,3.2-3.9
	c-0.1-3.5-0.1-7,0.2-10.5C133.1,122,133.2,122,126.6,121.9L126.6,121.9z M97.3,214.8c1.2-1,2.4-2.2,3.7-3.3c2.5-2.1,6.4-3.7,7.2-6.3
	c0.9-2.9-2.6-5.8-4.4-8.6c-1.9-3-1.6-8.6-5.5-8.7c-3.2,0-6.4,3.6-9.6,5.7c-0.9,0.6-1.6,1.4-2.5,1.9c-1.4,0.9-1.5,1.9-0.6,3.2
	c3.3,5,6.7,10,10,15C96,214.3,96.3,214.9,97.3,214.8z M195.2,83.4c-0.2-1-1-1.2-1.7-1.6c-3.8-2-7.5-4.2-11.5-5.9
	c-2-0.8-2.7-0.3-3.6,1.2c-3,4.9-5.4,10.1-7.9,15.2c-0.8,1.6-0.6,2.5,1.2,3.1c3.7,1.2,7.5,2.3,10.8,4.3c1.8,1.1,2.2-0.4,2.9-1.5
	c2.8-4.6,5.2-9.4,8.8-13.3C194.6,84.5,194.9,83.9,195.2,83.4L195.2,83.4z M296.1,76.4c-6,1.2-11.8,3.6-17.6,5.8
	c-1.4,0.6-1,1.5-0.6,2.5c1.5,3.5,3.1,6.9,4.4,10.4c0.7,1.9,1.6,1.8,3.2,1.4c5.2-1.4,10.3-2.9,15.6-3.5c1.8-0.2,2.1-1.1,1.6-2.7
	c-1.1-4.3-2.6-8.5-4.4-12.5C298,77,297.7,75.9,296.1,76.4z M96.1,224.1c-0.4,0.2-0.8,0.5-1.1,0.8c-3.3,3.6-6.5,7.1-9.8,10.7
	c-1.3,1.5-0.1,2.3,0.8,3.2c3.8,4.3,8.4,7.7,12.8,11.5c1.5,1.3,2.2,0.5,3.1-0.6c2.2-2.9,4.3-5.9,6.6-8.7c1.4-1.6,1.2-2.5-0.2-3.8
	c-3.8-3.7-8-7.1-10.8-11.8C97,224.9,96.6,224.5,96.1,224.1L96.1,224.1z M133.8,272.1c0-1.8-0.7-3.5-1.9-4.8
	c-2.9-3.6-4.6-7.8-6.1-12.1c-0.7-1.9-1.5-3.7-3.2-4.6c-3.2-1.8-5.5-6.9-8.7-5.9c-3,0.9-4.7,5.6-7.1,8.5c-1.1,1.4-1,2.3,0.5,3.4
	C115.4,262.6,124.3,267.2,133.8,272.1L133.8,272.1z M322,119h-6.3c-0.7,0-1.5,0.2-2.1,0.4c0.1,3.8,0.4,7.7,0.8,11.5
	c0,0.3,1.4,0.5,2.1,0.7c4,0.8,8,1.3,11.9,2.5c3.2,1,3.8-0.2,4-2.9C333,117.3,336.4,120,322,119z M260.8,104.2
	c4.7-1.4,9-2.9,13.4-4.1c3.3-0.8,3.1-2.5,2.1-5c-4.5-10.9-4.9-11.2-14.9-4.9c-2.4,1.5-7,1.6-6.6,5.2c0.3,2.8,3.2,5.2,4.9,7.9
	C260,103.8,260.4,104.2,260.8,104.2z M292.2,114.2c3.9-0.2,8.1-0.6,12.3-0.7c2.1-0.1,2.8-1,2.4-2.9c-0.6-3.3-1.2-6.7-1.7-10
	c-0.2-1.5-1-1.9-2.5-1.6c-2.9,0.7-5.9,1-8.8,1.9s-7,0.2-7.9,2.3s1.4,5.5,1.9,8.4C288.4,113.9,289.6,114.9,292.2,114.2L292.2,114.2z
	 M235.8,81.3c-0.7,0.5-1.4,1-2,1.5c-3,2.7-6.1,5.3-9,8.1c-3.7,3.5-3.6,3.6,0.2,6.9c5.3,4.8,5.4,4.8,11.2,0.8
	c2.9-2.1,7.9-3.2,8.2-6.4s-4-5.7-6.4-8.4C237.3,82.8,236.6,82,235.8,81.3L235.8,81.3z M168,100.5c-0.7-0.1-0.9,0.8-1.2,1.4
	c-2.4,5-3.1,10.5-4.7,15.7c-0.4,1.4,0.4,1.5,1.3,1.7c2.6,0.6,5.3,1.3,7.9,2c1.1,0.4,2.3-0.1,2.7-1.1l0.1-0.2c2-4.2,4.2-8.4,6.3-12.6
	c0.6-1.1,0.9-2.1-0.7-2.9C176.1,102.7,172.1,102.1,168,100.5z M199.8,108.1c1,0,1.4-0.8,1.9-1.3c1.6-1.7,3.3-3.4,4.8-5.2
	c6.9-8.1,8-5.6-1.2-12.3c-0.9-0.6-1.7-1.2-2.6-1.8c-1.6-1.4-2.8-1.5-3.9,0.5c-2.6,4.4-5.3,8.7-7.9,13c-0.3,0.5-1.1,1.3-0.5,1.7
	C193.5,104.6,196.7,106.3,199.8,108.1L199.8,108.1z M138.5,132.8c-0.4,9-0.4,9,8.4,8.9c0.3,0,0.5,0,0.8,0c2.2,0.4,2.9-0.8,3.2-2.7
	c0.8-4.2,1.6-8.4,2.6-12.6c0.5-2-0.1-2.9-2.2-3.1c-2.7-0.2-5.5-0.5-8.2-0.9c-3.3-0.7-4.5,0.5-4.4,3.8
	C139,128.4,138.7,130.6,138.5,132.8z M133.3,163.5c-0.3-4.2-0.8-8-0.7-11.8c0-2.7-1.2-2.9-3.4-2.7c-12.1,1.4-12.3,1.6-9.3,13.4
	c0.6,2.5,0.9,5.8,2.5,7.2c1.7,1.4,4.4-1.2,6.8-1.6c0.1,0,0.3-0.1,0.4-0.1C133,167.9,134.1,166.1,133.3,163.5L133.3,163.5z
	 M122.6,191.4c-1.2-3.6-2.7-7.7-4.2-11.8c-0.6-1.5-1.7-0.8-2.6-0.4c-3.2,1.4-6.3,3-9.6,4.4c-1.3,0.6-1.4,1.3-0.8,2.4
	c2.1,4.9,4.6,9.6,7.4,14.1c0.4,0.6,0.6,1.4,1.7,1.2C117.9,200.9,122.6,195.6,122.6,191.4L122.6,191.4z M120,225.4
	c-0.6-5.6-5.1-9.2-7.4-13.8c-0.5-0.9-1.3-0.5-2,0.1c-3,2.3-6,4.6-9,6.9c-1.1,0.8-1.1,1.5-0.3,2.5c3.4,4.2,7,8.1,10.9,11.8
	c0.6,0.5,1.1,1.1,2,0.9C115.6,233.4,119.9,227,120,225.4L120,225.4z M313.1,148.4c-0.3,1.4,0.1,3,2.9,3.1c1.3,0,2.5,0.9,3.8,1
	c2.7,0.4,5.5,3.7,7.2,2.2c1.8-1.5,2-5.2,2.4-8c1.1-7.3,2.7-5.9-5-7.5c-1.4-0.3-2.8-0.6-4.2-0.9c-6-1.3-6-1.3-6.5,4.6
	C313.6,144.4,313.4,145.9,313.1,148.4L313.1,148.4z M189.5,53c-10.1-1.7-24.1,4.7-27.4,11.2c4.4,1,8.9,1.9,13.2,3.1
	c1.3,0.4,2.7-0.1,3.3-1.3C181.8,61.6,184.8,57,189.5,53z M320,67.5c-6-8.4-18.5-13.3-26.9-11.8c2.3,3.8,4.6,7.5,6.8,11.3
	c0.5,1.3,2,2.1,3.4,1.9C308.8,68.3,314.2,67.4,320,67.5L320,67.5z M233.7,46c-11-3.6-20.5-1.9-30.1,3.7c4.6,2.1,9,3.9,12.9,6.4
	c1.2,0.8,2.1,0.4,3.1-0.3C224.1,52.7,228.6,49.5,233.7,46L233.7,46z M74.6,163.2c4.5-3,8.4-5.5,12.3-8.1c1-0.4,1.5-1.5,1.3-2.5
	c-1-5.6-1.6-11.3-1.9-17C78.8,142.9,74.5,152.8,74.6,163.2z M332.2,74.7c2.5,4.9,3.3,9.3,4.8,13.4c0.4,1,0.3,2.4,2,2.6
	c5.8,0.6,11.5,1.5,17.2,2.8C351.3,83.8,343.4,78.2,332.2,74.7z M95,122.9c4.2-2.3,8.6-3.3,13-4.3c1.2-0.3,2.1-0.6,2.3-2.1
	c0.8-5.6,1.1-11.3,3.1-16.9C103.2,103,96.9,113,95,122.9z M70.5,177.7c-5.1,4.3-7.8,21.1-4,28.9c2.4-3.9,6.1-6.5,9-9.8
	c0.8-0.9,1.5-1.6,1-3.1C74.2,188.5,72.2,183.2,70.5,177.7z M366.5,105.1c0.6,4.6,0.9,9.3,0.8,14c-0.1,0.9,0.4,1.8,1.2,2.2
	c5.5,2.1,10.7,4.6,15.8,7.6C384.4,121.1,374,106.9,366.5,105.1L366.5,105.1z M391.5,142c-0.4,5-1.9,9.1-2.9,13.4
	c-0.2,1-0.7,2,0.4,2.9c4.5,3.7,8.9,7.4,13.5,11.2C404.2,161.5,399.8,150.5,391.5,142z M83.7,294.5c0.2-5.1,1.6-9,2.5-13
	c0.2-1,1.2-2.3,0.1-3.3c-4.5-3.9-9.1-7.7-14.1-12C71.6,277.6,76,286.3,83.7,294.5z M248.9,47c3.5,3.1,7,6.1,10.5,9.3
	c0.7,0.6,1.4,1.2,2.4,0.7c5.3-2.6,10.8-4.4,16.6-5.6C271.4,45.2,256.4,43.3,248.9,47z M148.4,71.3c-9.3,0.6-22.8,11.1-23.4,17.9
	c4.1-1.2,8.3-0.7,12.4-0.8c1.9-0.1,3.1-0.4,3.9-2.3C143.5,81.3,145.2,76.2,148.4,71.3z M65.9,222.1c-3.8,8.5-1.8,24.6,3.3,29
	c1.9-3.5,3.6-7.2,5.8-10.6c1.6-2.5,1.1-4.2-0.6-6.1C70.9,230.8,68,226.6,65.9,222.1z M308.2,140c1-3.5-1.1-4.4-4.6-4.5
	c-2.3-0.1-4.7-0.3-7-0.7c-1.9-0.2-3,0.1-2.5,2.4c0.5,2.3,0.8,4.6,0.8,6.9c0,2.9,0.9,3.8,3.9,4.2C308,149.6,308,149.8,308.2,140
	L308.2,140z M301.5,119.1c-2.1,0.3-4.2,0.5-6.2,0.5c-4.1-0.2-4.6,1.2-3.8,5.1c0.7,3.2,1.8,4.4,5,4.4c2.2,0.1,4.4,0.4,6.6,0.9
	c5.5,0.8,5.5,0.8,5-4.8C307.6,118.9,307.6,118.9,301.5,119.1L301.5,119.1z M206.2,163.8c-8.3-0.7-16.6,0.2-24.8,0.7
	c-6.6,0.4-10.1,3.1-12.7,10.4C181,169.8,193.7,167,206.2,163.8L206.2,163.8z M220.6,157.2c-8.1-3-16.5-4.5-24.9-6
	c-5.3-1-10.4,1.9-13.2,7.3C195.2,156.9,207.9,157.7,220.6,157.2L220.6,157.2z M268,117.5c3.2-0.5,5.9-0.9,8.6-1.4
	c6.4-1.1,6.4-1.1,4.4-7.2c-1.5-4.8-1.5-4.8-6.2-3.2c-2.8,1-5.6,2.2-8.5,2.9c-2.7,0.7-3.4,1.7-1.5,3.9C266,114.2,265.8,117,268,117.5
	L268,117.5z M186.8,125.6c0.3-0.1,0.9-0.2,1.2-0.5c2.7-3.5,6-6.8,7.8-10.7c1.3-2.8-2.7-3.2-4.5-4.1c-1.5-0.8-3.6-3.8-5.4-0.8
	c-2.3,3.8-3.9,7.9-5.8,11.9c-0.4,0.9-0.9,1.8,0.5,2.2C182.6,124.3,184.6,124.9,186.8,125.6L186.8,125.6z M254.2,106.3
	c0-0.8-5-8.2-5.7-8.3c-0.5-0.1-1,0-1.4,0.3c-3.4,2.9-7.5,4.6-11.1,7.2c-1.5,1.1-1.4,1.6-0.2,2.9c4.5,4.8,4.4,4.9,10.4,2.1
	c2.1-1,4.3-1.8,6.4-2.8C253.3,107.4,254.3,107.4,254.2,106.3L254.2,106.3z M225,106.3c-0.1-0.2-0.2-0.5-0.3-0.7
	c-1.9-2.6-4.5-4.7-7.5-6.1c-1.9-0.7-3.2,2.5-4.6,4c-1.5,1.6-3,3.3-4.3,5.1c-0.8,1-3.1,2.1-1.6,3.3c2,1.6,4.5,4.8,6.8,3.6
	c4.1-2.1,7.4-5.6,11.1-8.6C224.7,106.7,224.8,106.5,225,106.3L225,106.3z M161.1,141.6c3.2,0.9,4.9-0.3,5.4-3.5
	c0.4-1.2,0.9-2.4,1.5-3.6c3.5-7.8,3.3-8-5.2-9.2c-2.5-0.4-3.2,0.5-3.5,2.7c-0.4,3.1-1,6.1-1.8,9.1
	C156.4,140.8,156.7,142.8,161.1,141.6L161.1,141.6z M199,146.1l2.4,0.5c10,2,19.9,4.2,29.7,6.9c0.9,0.2,1.9,1.8,2.7,0.5
	c0.8-1.3-0.8-2-1.8-2.5c-6.5-3.3-13-6.5-19.6-9.8c-1.1-0.7-2.5-0.9-3.8-0.4C205.6,142.6,202.5,143.7,199,146.1L199,146.1z
	 M160.1,193.6c9.4-7.1,20.1-11.7,30.3-18.5c-1.6-0.4-3.3-0.3-4.9,0.3c-5.3,1.8-10.4,4.1-15.9,5.2
	C162.3,182.2,161.3,187.7,160.1,193.6L160.1,193.6z M275.3,134.2c1.1,2.7,2.2,5.2,3.1,7.7c2.4,6.8,2.4,6.8,9.3,6.1
	c0.7-0.1,1.9,0.2,1.8-0.9c-0.2-4.1-0.9-8.2-2.1-12.2c-0.1-0.3-0.9-0.5-1.4-0.6C282.5,133.9,278.9,133.9,275.3,134.2L275.3,134.2z
	 M249.2,152.2c-4.9-4.3-9.7-8.7-14.6-13c-3.9-3.5-10-3.6-14.8-0.4c9,4.1,17.3,9.3,25.9,13.9C246.9,153.4,248.4,153.2,249.2,152.2
	L249.2,152.2z M231.1,282.5c-11.6,2-23.1,4.8-35,6c3.8,2.8,7.5,6.1,12.8,4.1c5-1.9,10-3.7,14.9-5.7
	C226.4,285.8,229.1,284.8,231.1,282.5z M215.2,296.9c5.5,1.9,10.9,3.8,16-1c1.8-1.5,3.7-2.8,5.8-4c4.3-2.9,8.3-6,11.4-10.3
	C237.4,287,226.8,292.8,215.2,296.9z M139.8,165.2c0.5,0,1-0.1,1.5-0.3c5.5-2.7,9.1-9.6,8.2-15.7c-0.2-1.2-0.8-1.2-1.5-1.2
	c-2.5,0-4.9,0.1-7.4,0.1c-1.5,0-2.1,0.8-2,2.2C138.9,155.2,138.8,160.2,139.8,165.2z M165.6,257.3c1.8,4.7,3.5,8.4,6.9,9.6
	c8,2.7,16.4,3.7,24.9,4.5c0.7,0.1,1.7,0.3,1.8-0.9c0-0.8-0.8-1-1.4-1.1C187.2,266.2,176.5,263.1,165.6,257.3z M263.1,279
	c-9.4,6.1-16.9,14.7-26.4,20.8c5.4,0.7,10.5,0.9,14.3-4.1C255.1,290.2,260.2,285.5,263.1,279z M257.7,134c2.6,4.3,5.2,7.9,7.2,11.7
	c1.7,3.2,3.8,4,7.2,3.4c2-0.3,2.4-0.9,1.6-2.6c-1.5-3.5-2.9-7-4.4-10.4c-0.5-1.1-1-2.1-2.5-2.1C264,134,261.1,133.9,257.7,134
	L257.7,134z M260.9,150.4c-0.1-0.4-0.2-0.7-0.3-1.1c-2.2-3.4-4.4-6.8-6.8-10c-3.6-5-7.6-5.9-13.7-3.5c4.8,4.5,9.6,8.9,14.1,13.5
	C256.3,151.5,258.3,151.8,260.9,150.4L260.9,150.4z M257.9,297.4c5.6-0.5,10.4-2,12.7-7.8c1.1-2.8,2.6-5.4,3.9-8.1
	c0.3-0.7,1.1-1.4,0.6-2.1s-1.7-0.5-2.5-0.5c-1.4,0-1.9,1.2-2.6,2.1C265.6,286,262.3,292,257.9,297.4L257.9,297.4z M335.7,218.8
	c2.1-1.7,4.2-3,5.8-4.9c1-1.3-0.9-2.5-1.5-3.6c-0.5-1-1.2-2-2-2.9c-5.6-5.6-3.4-5.7-8.4,0.4c-1.2,1.5-1.1,2.5,0.2,3.9
	c1.6,1.7,2.9,3.6,4.4,5.5C334.6,217.7,335.1,218.2,335.7,218.8L335.7,218.8z M311.8,163.9c-0.5,1.3,0.3,1.9,1.5,2.4c2.7,1,5.4,2,8,3
	c0.7,0.4,1.6,0.1,2-0.5l0,0c3.1-4.1,2.5-7-2.2-9.2c-0.5-0.2-0.9-0.4-1.4-0.6C312.8,156.1,312.5,156.3,311.8,163.9L311.8,163.9z
	 M337,186.8c-1.4-2.4-3.6-3.5-5.5-4.8c-5.2-3.6-5.2-3.5-7.6,2.2c-0.7,1.5-0.8,2.5,0.9,3.5c1.4,0.9,2.5,2.3,3.9,3.2
	c1.2,0.8,2.5,3.1,3.7,2C334.4,191.3,335.6,188.8,337,186.8L337,186.8z M330.7,165.7c-0.4,0.8-0.8,1.5-1.1,2.3
	c-1.5,3-1.8,5.5,2.1,7.1c2.1,0.9,3.8,2.6,5.9,3.9c1,0.6,1.7,2.8,3.4,1.3c1.4-1.3,0.9-3,0-4.3C338.1,172,335.6,167.8,330.7,165.7z
	 M283.3,127.8c1,0.5,2.1,1.1,2.6-0.4c0.9-2.9-1.9-6.4-4.9-6s-5.7,0.8-8.5,1.1c-1.8,0.2-2.4,1-1.5,2.9c0.8,1.7,1.7,2.7,3.8,2.5
	c2.9-0.2,5.7,0,8.6,0L283.3,127.8z M207.9,119.6c-0.2-0.1-0.5-0.2-0.7-0.4c-3.4-3-5.4-2.9-8.2,0.7c-1.6,2-2.9,4.3-4.4,6.4
	c-1.1,1.5-0.5,2,1.1,2.6s2.8,0.8,4.1-0.6c2.1-2.2,4.5-4.3,6.8-6.4C207.1,121.3,207.9,120.9,207.9,119.6L207.9,119.6z M261,118.7
	c-2.4-6.8-2.4-6.8-8.7-4.2c-1.6,0.6-3.1,1.2-4.6,2c-1,0.5-3.1,0.6-2.3,2.3c0.6,1.5,1.6,3.3,4.1,2.7
	C253.2,120.4,257.1,119.5,261,118.7L261,118.7z M218.5,119.3c2.3,3.1,4.7,3.4,7.7,1.2c1.8-1.3,4-1.9,5.9-3c0.9-0.5,3.3-0.7,1.6-2.4
	c-1.4-1.4-2.1-5.3-5.3-3.3C224.8,113.9,221.8,116.8,218.5,119.3L218.5,119.3z M174.8,142.8c1.7,0.4,2.5-0.5,3.2-1.7
	c1.1-2,2.3-4.1,3.5-6.1c2.6-4,2.5-4.1-2-5.3c-1.9-0.5-2.9-0.2-3.6,1.7c-1,2.7-2,5.3-3.3,7.9C171.2,141.9,171.8,143.1,174.8,142.8
	L174.8,142.8z M307.3,157.6c-1.9-4.1-6.1-2.5-9-3.5c-1.7-0.6-1.9,0.5-1.9,1.9c0,5.3,1.9,7.5,8.1,7.5
	C308.1,163.4,305.9,159.7,307.3,157.6L307.3,157.6z M310.2,177c-0.1,1.8,4.2,6,6.5,5.7c3.1-0.4,2.5-3.9,3.6-6
	c0.5-1.1-5.8-5.3-8.2-4.9C309,172.4,311.9,175.8,310.2,177L310.2,177z M324.8,215c-1,0.1-5,5-4.7,5.7c1.3,2.4,2.3,5.3,4.4,6.7
	c1.7,1.1,3.1-2,4.8-3.1c1.4-0.9,1.5-1.9,0.4-3.2c-1.3-1.6-2.4-3.3-3.7-5C325.6,215.8,325.2,215.4,324.8,215L324.8,215z M328.5,199.4
	c0-1.3-5.9-6.7-7.1-6.8c-2.2,0-1.6,2.2-2.5,3.3c-2.8,3.4,0.4,4.6,2.3,6.3c1,0.9,2,3.1,3.2,2.3C326.2,203.2,327.4,201,328.5,199.4
	L328.5,199.4z M325.4,243.7c-0.1-1.8-2.5-6.1-3.4-6.1s-5.8,4.4-5.4,4.9c1.6,2.2-0.1,6.1,3.4,7C321.7,250,325.5,245.6,325.4,243.7
	L325.4,243.7z M344.2,205.3c0.4-5,1.8-8.9-1.3-12.5c-1.4-1.6-1.9-1.5-3,0.1c-3.6,5.7-3.7,4.5,0.7,8.4
	C341.7,202.4,342.6,203.5,344.2,205.3L344.2,205.3z M277,289.8c3.2-1.3,6.1-3.2,8.7-5.6c1.5-1.3,2.5-3.5,1.9-5.2
	c-0.5-1.5-2.8-0.4-4.2-0.5s-1.7,1-2.1,1.9C279.9,283.2,278.7,286,277,289.8z M304.3,176c0.1-0.6,0.3-1.2,0.4-1.9
	c0.8-4.3-1.2-6.4-5.6-6.4c-1.3,0-1.5,0.5-1.5,1.6C297.1,173,298.3,174.3,304.3,176z M290.7,160.5c0.2-0.3,0.3-0.5,0.3-0.8
	c0.3-5.6-1.2-7-6.7-6.1c-1.4,0.2-1.5,0.6-1.4,2C283.5,160.7,287.6,159.7,290.7,160.5L290.7,160.5z M301.7,266.5
	c-0.3-0.5,1.4-2.9-1.4-2.8c-3.7,0.1-4.9,2.6-5.2,5.9c-0.2,1.6,0.4,2,1.9,1.9C300,271.4,302.8,271.4,301.7,266.5L301.7,266.5z
	 M314.7,235.5c1.3-2,4.7-1.8,4.2-4.2c-0.4-2-1.3-5.1-3.6-5.4c-1.5-0.2-3.7,2.2-3.4,4.3C312.1,232.3,313.1,234.2,314.7,235.5
	L314.7,235.5z M320,210.5c0-1-4.7-5.8-5.1-5.5c-1.6,1-2.6,2.7-2.6,4.6c0.2,2.2,1.8,5,3.9,5.1C318,214.8,318.9,211.8,320,210.5
	L320,210.5z M307.8,188.9c-0.1,1.3,3.2,5.8,4.2,5.6c2.3-0.5,1.9-3,2.8-4.5c0.4-0.8-4.2-4.9-5.3-4.6
	C307.4,185.8,308.8,188,307.8,188.9L307.8,188.9z M311.2,245.6c-4.5,1.1-5,4-4.4,7.5c0.1,0.7-0.1,1.5,1.1,1.6
	c2.4,0.1,4.4-1.8,4.5-4.2c0-0.4,0-0.8-0.1-1.1C312,248.1,311.6,246.9,311.2,245.6L311.2,245.6z M284,307.3
	c8.4,0.4,10.1-0.4,11.4-5.9C291.6,304.1,285.9,301.1,284,307.3L284,307.3z M315.1,284l-8,4c-1.5,0.8-1.2,2.2-1.3,3.4
	c-0.1,0.6,0.2,0.9,0.9,0.9C310.1,292.5,315.2,287.7,315.1,284L315.1,284z M155.4,154.7c2.3-1.3,4.6-2.5,6.8-3.8c0.7-0.4,1.1-1.2,1-2
	c0-1.2-1.1-0.9-1.8-1C155.9,146.7,154.8,147.9,155.4,154.7z M132.1,173.9c-9.7,2-9.4,2-5.5,9C128.8,180.1,130.6,177.1,132.1,173.9
	L132.1,173.9z M271.8,314.5c-2.7-0.2-4.8-0.5-7-0.6c-1.5-0.1-3.2-0.5-4.3,1.1c-0.4,0.6-1.2,1.1,0,1.8
	C263.2,318.3,269.6,317.2,271.8,314.5L271.8,314.5z M205.1,132.4c3.7-0.9,6.3-3.4,9.4-5.3c0.7-0.4,2.5-0.7,1-2.1
	c-0.7-0.7-1.7-1.9-3-0.5C210,127,206.9,129,205.1,132.4z M134.6,204.3c1.3-2.1,2.6-4.1,3.8-6.2c0.7-0.9,0.5-2.3-0.4-3
	c-0.1,0-0.1-0.1-0.2-0.1c-0.9-0.5-2,0.2-2.6,1C133.2,198.5,131.3,201,134.6,204.3L134.6,204.3z M252.3,127.6
	c3.6,1.3,7.2-0.1,10.7,0.2c0.7,0.1,2.1,0.6,2-0.9c-0.1-1-0.4-2.6-2-2.3C259.4,125.2,255.6,125.4,252.3,127.6L252.3,127.6z
	 M141.5,177.9c1.9-1.6,3.6-3,5.3-4.6c1-1,1.5-2.5,0.5-3.4s-2.5-0.1-3.4,0.7C141.6,172.4,139.9,174.6,141.5,177.9L141.5,177.9z
	 M250.7,324.6c5.8,2.1,9,1.7,11.6-1.8C258.3,323.5,254.2,319.4,250.7,324.6z M288.8,313.6c-10,0.9-9.5-0.9-10.5,4.3
	C282.1,317,286.3,317.8,288.8,313.6L288.8,313.6z M341.3,249.2c-6.2,5.7-6.5,6.3-4.6,10.8C339.2,256.8,342.6,254.4,341.3,249.2
	L341.3,249.2z M228.4,126.2l0.3,1.1l12.5-3.8c-1.2-1.4-1.6-3.4-3.5-2.5C234.5,122.6,231.1,123.7,228.4,126.2L228.4,126.2z
	 M329,275.2c-1.8,3.3-8.1,2.8-6.8,8.8C326,282.2,329.4,280.3,329,275.2z M302.2,303.4c5.3-0.5,8.1-2.4,9.1-6.5
	C308,299,302.6,297.3,302.2,303.4L302.2,303.4z M329.5,237.9c2.4-3,4.4-5.6,5.4-9.6C327.3,232.2,327,232.8,329.5,237.9L329.5,237.9z
	 M344.1,233.3c1.3-4.1,4.3-7.4,1.2-11.5C344.7,225.3,340.2,228.3,344.1,233.3L344.1,233.3z M129.4,192.3c5.3-4.1,7.1-8,5.5-11.1
	C131.9,184,130.5,187.7,129.4,192.3L129.4,192.3z M271.5,308.2h3.8c1.2,0.1,2.2-0.8,2.3-2c0,0,0,0,0,0c0-0.1,0-0.1,0-0.2
	c-0.1-1.5-1.6-0.8-2.5-0.8c-1.2,0-2.3,0.2-3.5,0.5c-1.7,0.4-4.8-0.9-4.7,1.6C267.1,309,270.2,307.8,271.5,308.2z M193.6,134.6
	c-4.1-1.6-6.3,0.2-8.3,6.1C189.2,140.3,190.5,136.8,193.6,134.6z M288.9,296.8c3.2,0.8,5.9-0.8,8.7-1.6c0.9-0.3,1.5-1.2,1.4-2.1
	c0-0.6-0.4-1-1-0.8C294.8,293.5,291.4,294.1,288.9,296.8z M120.5,212.9c1.9-1.9,1-3.7,1-5.5c0-1,0.2-2.6-1-2.7c-1-0.1-2,0.9-3,1.6
	c-1.3,1-0.2,1.8,0.3,2.6C118.6,210.2,119.5,211.4,120.5,212.9z M321.3,260.6c3-1.9,6.1-3.6,7.2-8.1
	C324.9,253.9,322.2,256.9,321.3,260.6L321.3,260.6z M300.6,251.9c-3.3,0.6-4.4,2.6-3.9,5.4c0.3,1.7,1.7,0.7,2.5,0.4
	C302.9,256.5,300.6,254.1,300.6,251.9L300.6,251.9z M121.3,235.1c-4,3.7-3.6,5,2.4,7.9C124.4,239.9,122.6,237.6,121.3,235.1z
	 M275.5,158.8c0.9,0,2.5,0.6,2.1-1.1c-0.3-1.4-0.3-3.8-2.9-3.2c-1.1,0.2-3.1-0.9-3,1.2c0,1.8,1.5,3.2,3.3,3.2c0,0,0,0,0,0
	C275.2,158.9,275.4,158.9,275.5,158.8L275.5,158.8z M305.5,241.4c4.5-2.2,4.5-2.3,1.7-6.8C304.1,236.2,303.9,238.6,305.5,241.4
	L305.5,241.4z M316.8,275.6c-4.6-1.1-6.5,2.2-9,3.9c-0.2,0.2-0.2,1,0,1.4c0.3,0.7,0.9,0.2,1.3,0
	C311.9,279.5,314.5,277.7,316.8,275.6L316.8,275.6z M289.5,269.2c0-0.8,0.8-2.1-1.1-2.1c-2.4,0.1-3.3,1.7-3.8,3.7
	c-0.3,1.4,0.5,1.4,1.5,1.5C288.5,272.5,289.7,271.6,289.5,269.2L289.5,269.2z M307.8,204.3c3.6-3.3,1.3-5-1.6-6.6
	C304.8,201.1,304.8,201.1,307.8,204.3L307.8,204.3z M286.7,166c0,3.5,2,4.6,4.5,4.8c1.3,0,0.8-1.4,0.7-2.1
	C291.4,165.3,288.8,166.6,286.7,166z M298.4,180.6c-0.4,4.2-0.2,4.4,3.7,5.5C303.2,182.3,303.2,182.3,298.4,180.6z M333.3,243.2
	c7-2.2,7.4-2.9,4.4-6.7L333.3,243.2z M309.1,216.4c-1.2,0.8-2,1.8-1.7,3.1s0.5,3.3,2,3.2c1.2,0,2.4-1.6,2.1-3.2
	C311.5,218,310.5,216.8,309.1,216.4L309.1,216.4z M323.7,267.2c7-1,7-1,5.9-5.3L323.7,267.2z M193.8,310.5c-1.5-2.9-3.9-2.6-6.4-2.1
	C188.9,311.6,191.2,311.4,193.8,310.5z M171.4,296.3c-0.7-3.4-3-3.9-5.8-4.2C165.9,295.9,168.5,296,171.4,296.3z M239.1,321
	c3.1,2.4,5,1,6.9-1.3C243.3,318.2,241.4,319.4,239.1,321z M153.6,276.3c-0.2-3.4-2.1-4.5-4.5-5.3
	C148.3,274.8,150.7,275.4,153.6,276.3L153.6,276.3z M174.9,306.8c1.3,2.9,3.2,3.7,5.9,3.1C179.8,306.9,177.6,306.9,174.9,306.8
	L174.9,306.8z M138.5,246.2c-1.6,3.6,0.7,4.8,2.8,6.2C142.8,249.3,140.3,248.2,138.5,246.2L138.5,246.2z M219.5,318.7
	c-2.6-2.3-4.6-2.2-6.9-0.6C214.5,321.3,216.7,319.6,219.5,318.7L219.5,318.7z M200.1,320.4c1.9,2.1,3.9,2.5,6.4,1
	C204.4,318.9,202.4,319,200.1,320.4L200.1,320.4z M129.5,208.7c-1.8,2.9-1.8,2.9,0.3,6.1C131.6,212.6,131,210.7,129.5,208.7z
	 M158.9,292.3c-0.4-3.3-2.2-4.4-5.1-4.3C154.5,290.7,156.2,291.8,158.9,292.3L158.9,292.3z M234.2,326.1c-2.4-1.9-4.3-1.5-6.1,0.5
	C230.2,328.6,232.1,327.7,234.2,326.1L234.2,326.1z M135.3,226.7c1.6-2.1,1.5-3.6,0.4-5.1c-0.8-1-1.5-0.1-1.9,0.4
	C132.4,224,134.6,224.9,135.3,226.7L135.3,226.7z M139,264.2c0.2,3.3,0.2,3.4,3.5,4.5C143,266,141.2,265,139,264.2L139,264.2z
	 M311.8,260.5c-2.2-0.1-3.7-0.1-4.1,1.9c-0.1,0.5-0.1,1.6,0.7,1.5C310,263.6,310.7,262.1,311.8,260.5L311.8,260.5z M132.3,243
	c0.9-2.7,0.3-4.6-1.8-6.1C129.7,239.2,130.3,241.1,132.3,243L132.3,243z"/>
<g>
	<path fill="#059669" d="M78.9,300.5c-0.1,3-0.6,5.3-1.6,6.8c-0.9,1.5-3.1,2.7-6.5,3.6c-1.4,0.4-2.6,0.7-3.6,1c-1,0.3-2.1,0.6-3.2,1
		c-1.1,0.4-2.3,0.8-3.7,1.3c-1.3,0.5-3,1.2-5,2c-1.4,0.7-2.6,1.1-3.5,1.1c-1.9,0-3-1.4-3.3-4.2c0.1-7.3,0.4-19.3,0.9-36.2
		c0.2-7.1,0.5-15.7,0.9-25.8s0.8-21.7,1.2-35.1c0.5-13.4,1.1-28.6,1.8-45.6s1.5-36.2,2.5-57.6c0-0.6,0-1.3,0.1-2.3
		c0.1-0.9,0.1-2,0.1-3.2c-5.5,6-11.9,11.7-19.2,17.1c-7.3,5.4-14.6,9.8-21.9,12.9c-1.3,0.6-2.5,0.9-3.7,0.9c-1.2,0-2.1-0.3-2.6-0.9
		c-0.6-0.6-0.9-1.3-0.9-2.1c0-1.2,0.6-2.2,1.8-3c8.4-6.4,15.3-13,20.7-19.6c5.3-6.6,9.6-12.7,12.8-18.1c3.2-5.4,5.6-10.1,7.2-14
		s2.8-6.3,3.6-7.4c1.2-1.4,2.5-2.6,4-3.5c1.5-0.9,3.1-1.4,4.8-1.4c1.2,0,2.2,0.2,3.2,0.7c0.9,0.5,2.2,1,3.7,1.6
		c2.2,0.9,4.4,1.8,6.6,2.6c2.2,0.8,4.2,1.8,6.2,2.8c1.8,0.9,3,2.3,3.6,4.1c0.6,1.8,0.9,4.2,0.8,7.3c0,0.7-0.1,3.1-0.2,7.1
		c-0.1,4-0.3,9.3-0.5,15.8c-0.2,6.5-0.5,14-0.8,22.5c-0.3,8.5-0.6,17.5-1,27.1c-0.4,9.6-0.7,19.4-1.1,29.5
		c-0.4,10.1-0.7,20.1-1.1,29.9c-0.4,9.8-0.7,19.2-1.1,28.2c-0.4,9-0.6,17.1-0.9,24.3c-0.2,7.2-0.4,13.3-0.6,18.3
		C79.1,295.2,79,298.7,78.9,300.5z"/>
</g>
<g>
	<path fill="#059669" stroke="#231F20" stroke-width="8" stroke-miterlimit="10" d="M78.9,300.5c-0.1,3-0.6,5.3-1.6,6.8
		c-0.9,1.5-3.1,2.7-6.5,3.6c-1.4,0.4-2.6,0.7-3.6,1c-1,0.3-2.1,0.6-3.2,1c-1.1,0.4-2.3,0.8-3.7,1.3c-1.3,0.5-3,1.2-5,2
		c-1.4,0.7-2.6,1.1-3.5,1.1c-1.9,0-3-1.4-3.3-4.2c0.1-7.3,0.4-19.3,0.9-36.2c0.2-7.1,0.5-15.7,0.9-25.8s0.8-21.7,1.2-35.1
		c0.5-13.4,1.1-28.6,1.8-45.6s1.5-36.2,2.5-57.6c0-0.6,0-1.3,0.1-2.3c0.1-0.9,0.1-2,0.1-3.2c-5.5,6-11.9,11.7-19.2,17.1
		c-7.3,5.4-14.6,9.8-21.9,12.9c-1.3,0.6-2.5,0.9-3.7,0.9c-1.2,0-2.1-0.3-2.6-0.9c-0.6-0.6-0.9-1.3-0.9-2.1c0-1.2,0.6-2.2,1.8-3
		c8.4-6.4,15.3-13,20.7-19.6c5.3-6.6,9.6-12.7,12.8-18.1c3.2-5.4,5.6-10.1,7.2-14s2.8-6.3,3.6-7.4c1.2-1.4,2.5-2.6,4-3.5
		c1.5-0.9,3.1-1.4,4.8-1.4c1.2,0,2.2,0.2,3.2,0.7c0.9,0.5,2.2,1,3.7,1.6c2.2,0.9,4.4,1.8,6.6,2.6c2.2,0.8,4.2,1.8,6.2,2.8
		c1.8,0.9,3,2.3,3.6,4.1c0.6,1.8,0.9,4.2,0.8,7.3c0,0.7-0.1,3.1-0.2,7.1c-0.1,4-0.3,9.3-0.5,15.8c-0.2,6.5-0.5,14-0.8,22.5
		c-0.3,8.5-0.6,17.5-1,27.1c-0.4,9.6-0.7,19.4-1.1,29.5c-0.4,10.1-0.7,20.1-1.1,29.9c-0.4,9.8-0.7,19.2-1.1,28.2
		c-0.4,9-0.6,17.1-0.9,24.3c-0.2,7.2-0.4,13.3-0.6,18.3C79.1,295.2,79,298.7,78.9,300.5z"/>
</g>
<g>
	<path fill="#059669" d="M274.4,219.3c-0.7,0.6-2.2,1.6-4.4,2.9c-2.2,1.3-5.2,2.8-9,4.5c-0.1,8.8-0.2,18.2-0.2,28.2s0,20.8,0,32.4
		c0,1.6-0.1,3.5-0.4,5.4c-0.2,2-0.8,3.9-1.6,5.8c-0.8,1.9-2,3.6-3.6,5.1c-1.6,1.5-3.8,2.6-6.6,3.2c-2.1,0.5-4,1.3-5.7,2.5
		c-1.7,1.2-3.3,2.4-4.7,3.6c-1.4,1.2-2.7,2.3-3.8,3.3c-1.1,0.9-2.1,1.4-3.1,1.4c-0.6,0-1-0.3-1.2-1c-0.2-0.6-0.4-1.9-0.4-3.8
		c0-0.7,0-3.4,0.1-8c0.1-4.6,0.2-10.5,0.4-17.8s0.4-15.4,0.6-24.5c0.2-9.1,0.5-18.6,0.7-28.3c-1.6,0.2-3.3,0.4-4.9,0.5
		c-1.6,0.1-3.3,0.2-5.1,0.4c-3.9,0.2-8,0.4-12.3,0.5c-4.3,0.1-8.7,0.2-13.2,0.2c-5.6,0-11.2-0.1-16.9-0.2c-5.6-0.1-11-0.2-16.3-0.4
		c-5.2-0.1-10.1-0.2-14.6-0.4c-4.5-0.1-8.4-0.2-11.7-0.2c-3.5,0-6.1,0.1-7.7,0.4c-1.6,0.2-3,0.4-4,0.4c-2.7,0-4.8-0.8-6.2-2.3
		c-1.5-1.5-2.2-3.3-2.2-5.3c0-1.2,0.2-2.2,0.7-3.2c0.5-0.9,1.9-2.8,4.2-5.7c2.3-2.9,5.1-6.7,8.3-11.6c3.2-4.9,6.6-10.7,10.2-17.5
		c3.6-6.8,6.9-14.6,10-23.4c3.1-8.8,5.7-18.5,7.6-29.2c2-10.7,3-22.3,3-35c0-7.6-0.3-13.5-0.8-17.6c-0.5-4.1-0.8-7.6-0.8-10.4
		c0-3.4,0.4-5.7,1.3-6.8c0.9-1.1,1.8-1.7,2.7-1.7c0.8,0,1.7,0.1,2.6,0.4c0.9,0.2,1.9,0.4,3,0.4c1.2,0,2.3,0.3,3.3,0.8
		c1,0.5,1.9,1.1,2.8,1.7c0.9,0.6,1.8,1.1,2.6,1.7s1.8,0.8,2.9,0.8h1.4c4.7,0,8,2.1,9.9,6.3s2.9,10.2,2.9,17.9
		c0,7.4-0.7,17.5-2.1,30.2c-1.2,10.9-3.4,20.9-6.8,30.1s-7.1,17.4-11.4,24.9c-4.3,7.4-8.6,14-13.1,19.6c-4.5,5.6-8.4,10.3-11.8,13.9
		c4.8,0.7,10.4,1.4,16.8,2.1c6.4,0.7,12.9,1.3,19.7,1.8c6.7,0.5,13.3,1,19.8,1.3c6.4,0.4,12.1,0.5,17.1,0.5c1.6,0,3.2,0,4.7,0
		c1.5,0,3.1-0.1,4.7-0.2c0.2-9,0.5-17.8,0.7-26.5c0.2-8.6,0.5-16.5,0.8-23.7c0.3-7.2,0.5-13.4,0.7-18.5c0.2-5.2,0.4-8.8,0.6-10.9
		c0.4-4.6,1.3-10.1,3-16.5c1.6-6.4,4.2-13.1,7.8-20c3.6-6.9,8.4-13.7,14.4-20.3c6-6.6,13.7-12.5,22.9-17.7c1.5-0.8,2.8-1.2,3.9-1.2
		c1.5,0,2.3,0.6,2.3,1.9c0,1.1-0.6,2.2-1.8,3.5c-4.1,4.5-7.5,8.9-10.2,13.4c-2.7,4.5-4.9,9.5-6.6,14.9c-1.7,5.4-3,11.6-4,18.5
		c-1,6.9-1.9,15-2.7,24.3c-0.9,9.1-1.6,19.8-2,31.9c-0.4,12.1-0.7,26.6-1,43.3c5.9-1.1,9.9-2,12.1-2.8c0.9-0.2,1.6-0.4,1.9-0.4
		c1.4,0,2.1,0.6,2.1,1.8C277.2,216.5,276.2,217.8,274.4,219.3z"/>
	<path fill="#059669" d="M462.3,168.9c0,13.5-1.8,26.2-5.3,38.2c-3.5,12-8.2,23.2-14.2,33.6c-5.9,10.4-12.8,19.8-20.7,28.3
		c-7.9,8.5-16.2,16-25,22.5c-8.7,6.5-17.6,12-26.7,16.3c-9.1,4.4-17.8,7.6-26.3,9.8c-1.4,0.4-2.5,0.5-3.3,0.5
		c-1.2,0-2.1-0.3-2.6-0.9c-0.6-0.6-0.9-1.3-0.9-2.3c0-1.1,0.2-1.9,0.7-2.5c0.5-0.6,1.2-1.2,2.3-1.8c1.2-0.7,4.2-2.4,9-5.2
		c4.8-2.8,10.5-6.7,17-11.9c6.5-5.2,13.4-11.7,20.7-19.5c7.3-7.8,14-17.2,20.1-27.9c6.1-10.8,11.2-23.2,15.2-37.3s6.1-29.9,6.1-47.5
		c0-15.4-1.6-28.2-4.7-38.7c-3.2-10.4-7.2-18.8-12.2-25.2c-5-6.4-10.5-11-16.5-13.7c-6-2.8-11.9-4.1-17.5-4.1
		c-4.7,0-9.4,1.1-14.2,3.2s-9,5.5-12.8,10.3c-3.8,4.7-6.9,11-9.3,18.6c-2.4,7.7-3.6,17.1-3.6,28.2c0,10.4,0.6,19.4,1.9,27
		c1.3,7.6,3,14,5.1,19.3c2.1,5.3,4.6,9.7,7.4,13s5.7,5.9,8.8,7.8c3,1.9,6.1,3.2,9.1,3.9c3,0.7,5.9,1.1,8.6,1.1c4.2,0,8-0.8,11.3-2.5
		c3.3-1.6,6.3-3.5,8.8-5.6c2.5-2.1,4.6-4.2,6.2-6.4c1.6-2.2,2.7-3.8,3.3-4.8c0.6-1.1,1.1-2,1.6-2.7c0.5-0.8,1.2-1.1,2.1-1.1
		c0.7,0,1.3,0.4,1.8,1.1c0.5,0.8,0.8,2.1,0.8,4.1c0,1.2-0.4,3-1.1,5.4s-1.8,5.2-3.4,8.3c-1.6,3-3.7,6.2-6.2,9.5
		c-2.6,3.3-5.7,6.3-9.5,9c-3.8,2.7-8.1,4.9-13.2,6.6c-5,1.7-10.8,2.5-17.4,2.5c-6.9,0-13.9-1.5-20.9-4.5s-13.4-7.7-19.1-14.2
		c-5.7-6.4-10.3-14.7-13.9-24.7c-3.6-10-5.4-22.1-5.4-36.1c0-12.5,1.8-24.3,5.4-35.2c3.6-11,8.8-20.5,15.5-28.7
		c6.7-8.1,14.7-14.6,24.2-19.2c9.4-4.7,20-7,31.6-7c11.1,0,21.6,1.9,31.6,5.8c9.9,3.9,18.5,9.9,25.9,18.2s13.2,18.9,17.5,31.9
		C460.1,134.8,462.3,150.5,462.3,168.9z"/>
</g>
<g>
	<path fill="#059669" stroke="#231F20" stroke-width="8" stroke-miterlimit="10" d="M274.4,219.3c-0.7,0.6-2.2,1.6-4.4,2.9
		c-2.2,1.3-5.2,2.8-9,4.5c-0.1,8.8-0.2,18.2-0.2,28.2s0,20.8,0,32.4c0,1.6-0.1,3.5-0.4,5.4c-0.2,2-0.8,3.9-1.6,5.8
		c-0.8,1.9-2,3.6-3.6,5.1c-1.6,1.5-3.8,2.6-6.6,3.2c-2.1,0.5-4,1.3-5.7,2.5c-1.7,1.2-3.3,2.4-4.7,3.6c-1.4,1.2-2.7,2.3-3.8,3.3
		c-1.1,0.9-2.1,1.4-3.1,1.4c-0.6,0-1-0.3-1.2-1c-0.2-0.6-0.4-1.9-0.4-3.8c0-0.7,0-3.4,0.1-8c0.1-4.6,0.2-10.5,0.4-17.8
		s0.4-15.4,0.6-24.5c0.2-9.1,0.5-18.6,0.7-28.3c-1.6,0.2-3.3,0.4-4.9,0.5c-1.6,0.1-3.3,0.2-5.1,0.4c-3.9,0.2-8,0.4-12.3,0.5
		c-4.3,0.1-8.7,0.2-13.2,0.2c-5.6,0-11.2-0.1-16.9-0.2c-5.6-0.1-11-0.2-16.3-0.4c-5.2-0.1-10.1-0.2-14.6-0.4
		c-4.5-0.1-8.4-0.2-11.7-0.2c-3.5,0-6.1,0.1-7.7,0.4c-1.6,0.2-3,0.4-4,0.4c-2.7,0-4.8-0.8-6.2-2.3c-1.5-1.5-2.2-3.3-2.2-5.3
		c0-1.2,0.2-2.2,0.7-3.2c0.5-0.9,1.9-2.8,4.2-5.7c2.3-2.9,5.1-6.7,8.3-11.6c3.2-4.9,6.6-10.7,10.2-17.5c3.6-6.8,6.9-14.6,10-23.4
		c3.1-8.8,5.7-18.5,7.6-29.2c2-10.7,3-22.3,3-35c0-7.6-0.3-13.5-0.8-17.6c-0.5-4.1-0.8-7.6-0.8-10.4c0-3.4,0.4-5.7,1.3-6.8
		c0.9-1.1,1.8-1.7,2.7-1.7c0.8,0,1.7,0.1,2.6,0.4c0.9,0.2,1.9,0.4,3,0.4c1.2,0,2.3,0.3,3.3,0.8c1,0.5,1.9,1.1,2.8,1.7
		c0.9,0.6,1.8,1.1,2.6,1.7s1.8,0.8,2.9,0.8h1.4c4.7,0,8,2.1,9.9,6.3s2.9,10.2,2.9,17.9c0,7.4-0.7,17.5-2.1,30.2
		c-1.2,10.9-3.4,20.9-6.8,30.1s-7.1,17.4-11.4,24.9c-4.3,7.4-8.6,14-13.1,19.6c-4.5,5.6-8.4,10.3-11.8,13.9
		c4.8,0.7,10.4,1.4,16.8,2.1c6.4,0.7,12.9,1.3,19.7,1.8c6.7,0.5,13.3,1,19.8,1.3c6.4,0.4,12.1,0.5,17.1,0.5c1.6,0,3.2,0,4.7,0
		c1.5,0,3.1-0.1,4.7-0.2c0.2-9,0.5-17.8,0.7-26.5c0.2-8.6,0.5-16.5,0.8-23.7c0.3-7.2,0.5-13.4,0.7-18.5c0.2-5.2,0.4-8.8,0.6-10.9
		c0.4-4.6,1.3-10.1,3-16.5c1.6-6.4,4.2-13.1,7.8-20c3.6-6.9,8.4-13.7,14.4-20.3c6-6.6,13.7-12.5,22.9-17.7c1.5-0.8,2.8-1.2,3.9-1.2
		c1.5,0,2.3,0.6,2.3,1.9c0,1.1-0.6,2.2-1.8,3.5c-4.1,4.5-7.5,8.9-10.2,13.4c-2.7,4.5-4.9,9.5-6.6,14.9c-1.7,5.4-3,11.6-4,18.5
		c-1,6.9-1.9,15-2.7,24.3c-0.9,9.1-1.6,19.8-2,31.9c-0.4,12.1-0.7,26.6-1,43.3c5.9-1.1,9.9-2,12.1-2.8c0.9-0.2,1.6-0.4,1.9-0.4
		c1.4,0,2.1,0.6,2.1,1.8C277.2,216.5,276.2,217.8,274.4,219.3z"/>
	<path fill="#059669" stroke="#231F20" stroke-width="8" stroke-miterlimit="10" d="M462.3,168.9c0,13.5-1.8,26.2-5.3,38.2
		c-3.5,12-8.2,23.2-14.2,33.6c-5.9,10.4-12.8,19.8-20.7,28.3c-7.9,8.5-16.2,16-25,22.5c-8.7,6.5-17.6,12-26.7,16.3
		c-9.1,4.4-17.8,7.6-26.3,9.8c-1.4,0.4-2.5,0.5-3.3,0.5c-1.2,0-2.1-0.3-2.6-0.9c-0.6-0.6-0.9-1.3-0.9-2.3c0-1.1,0.2-1.9,0.7-2.5
		c0.5-0.6,1.2-1.2,2.3-1.8c1.2-0.7,4.2-2.4,9-5.2c4.8-2.8,10.5-6.7,17-11.9c6.5-5.2,13.4-11.7,20.7-19.5c7.3-7.8,14-17.2,20.1-27.9
		c6.1-10.8,11.2-23.2,15.2-37.3s6.1-29.9,6.1-47.5c0-15.4-1.6-28.2-4.7-38.7c-3.2-10.4-7.2-18.8-12.2-25.2c-5-6.4-10.5-11-16.5-13.7
		c-6-2.8-11.9-4.1-17.5-4.1c-4.7,0-9.4,1.1-14.2,3.2s-9,5.5-12.8,10.3c-3.8,4.7-6.9,11-9.3,18.6c-2.4,7.7-3.6,17.1-3.6,28.2
		c0,10.4,0.6,19.4,1.9,27c1.3,7.6,3,14,5.1,19.3c2.1,5.3,4.6,9.7,7.4,13s5.7,5.9,8.8,7.8c3,1.9,6.1,3.2,9.1,3.9
		c3,0.7,5.9,1.1,8.6,1.1c4.2,0,8-0.8,11.3-2.5c3.3-1.6,6.3-3.5,8.8-5.6c2.5-2.1,4.6-4.2,6.2-6.4c1.6-2.2,2.7-3.8,3.3-4.8
		c0.6-1.1,1.1-2,1.6-2.7c0.5-0.8,1.2-1.1,2.1-1.1c0.7,0,1.3,0.4,1.8,1.1c0.5,0.8,0.8,2.1,0.8,4.1c0,1.2-0.4,3-1.1,5.4
		s-1.8,5.2-3.4,8.3c-1.6,3-3.7,6.2-6.2,9.5c-2.6,3.3-5.7,6.3-9.5,9c-3.8,2.7-8.1,4.9-13.2,6.6c-5,1.7-10.8,2.5-17.4,2.5
		c-6.9,0-13.9-1.5-20.9-4.5s-13.4-7.7-19.1-14.2c-5.7-6.4-10.3-14.7-13.9-24.7c-3.6-10-5.4-22.1-5.4-36.1c0-12.5,1.8-24.3,5.4-35.2
		c3.6-11,8.8-20.5,15.5-28.7c6.7-8.1,14.7-14.6,24.2-19.2c9.4-4.7,20-7,31.6-7c11.1,0,21.6,1.9,31.6,5.8c9.9,3.9,18.5,9.9,25.9,18.2
		s13.2,18.9,17.5,31.9C460.1,134.8,462.3,150.5,462.3,168.9z"/>
</g>
</svg>
